# Blender v2.77 (sub 0) OBJ File: 'kiste.blend'
# www.blender.org
mtllib kiste.mtl
o Cube.001_Cube.010
v -0.944334 0.055666 1.000000
v -1.000000 0.055666 0.944334
v -0.944334 0.000000 0.944334
v -0.944334 1.944334 1.000000
v -0.944334 2.000000 0.944334
v -1.000000 1.944334 0.944334
v -0.944334 0.055666 -1.000000
v -0.944334 0.000000 -0.944334
v -1.000000 0.055666 -0.944334
v -0.944334 2.000000 -0.944334
v -0.944334 1.944334 -1.000000
v -1.000000 1.944334 -0.944334
v 0.944334 0.055666 1.000000
v 0.944334 0.000000 0.944334
v 1.000000 0.055666 0.944334
v 0.944334 2.000000 0.944334
v 0.944334 1.944334 1.000000
v 1.000000 1.944334 0.944334
v 1.000000 0.055666 -0.944334
v 0.944334 0.000000 -0.944334
v 0.944334 0.055666 -1.000000
v 0.944334 2.000000 -0.944334
v 1.000000 1.944334 -0.944334
v 0.944334 1.944334 -1.000000
vt 0.9907 0.0093
vt 0.9907 0.3241
vt 0.6759 0.3241
vt 0.6759 0.0093
vt 0.0093 0.3241
vt 0.0093 0.0093
vt 0.3241 0.0093
vt 0.3241 0.3241
vt 0.0093 0.6759
vt 0.3241 0.6759
vt 0.3241 0.9907
vt 0.0093 0.9907
vt 0.3426 0.3426
vt 0.6574 0.3426
vt 0.6574 0.6574
vt 0.3426 0.6574
vt 0.0093 0.6574
vt 0.0093 0.3426
vt 0.3241 0.3426
vt 0.3241 0.6574
vt 0.6667 0.6574
vt 0.6574 0.6667
vt 0.6574 0.3333
vt 0.6667 0.3426
vt 0.3333 0.6574
vt 0.3241 0.6667
vt 0.3333 0.9907
vt 0.3241 1.0000
vt 0.3426 0.6667
vt 0.3333 0.6574
vt 0.0000 0.6759
vt 0.0093 0.6667
vt 0.3333 0.3241
vt 0.3241 0.3333
vt 0.3241 0.6667
vt 0.3333 0.6759
vt 0.0093 1.0000
vt 0.0093 0.6667
vt 1.0000 0.0093
vt 1.0000 0.3241
vt 0.9907 0.3333
vt 0.6759 0.3333
vt 0.3333 0.3426
vt 0.6667 0.3241
vt 0.6667 0.0093
vt 0.0000 0.9907
vt 0.6759 0.0000
vt 0.9907 0.0000
vt 0.3426 0.3241
vt 0.3426 0.0093
vt 0.6574 0.0093
vt 0.6574 0.3241
vn 0.0000 -1.0000 0.0000
vn 1.0000 0.0000 0.0000
vn 0.0000 1.0000 0.0000
vn 0.0000 0.0000 1.0000
vn 0.0000 0.0000 -1.0000
vn -0.5774 -0.5774 0.5773
vn -0.5774 0.5774 0.5773
vn -0.5774 -0.5774 -0.5773
vn -0.5774 0.5774 -0.5773
vn 0.5774 -0.5774 0.5773
vn 0.5774 0.5774 0.5773
vn 0.5774 -0.5774 -0.5773
vn 0.5774 0.5774 -0.5773
vn -0.7071 0.0000 0.7071
vn -0.7071 0.7071 0.0000
vn -0.7071 0.0000 -0.7071
vn -0.7071 -0.7071 0.0000
vn 0.0000 0.7071 -0.7071
vn 0.7071 0.0000 -0.7071
vn 0.0000 -0.7071 -0.7071
vn 0.7071 0.7071 0.0000
vn 0.7071 0.0000 0.7071
vn 0.7071 -0.7071 0.0000
vn 0.0000 0.7071 0.7071
vn 0.0000 -0.7071 0.7071
vn -1.0000 0.0000 0.0000
usemtl kiste
s off
f 3/1/1 8/2/1 20/3/1 14/4/1
f 23/5/2 18/6/2 15/7/2 19/8/2
f 16/9/3 22/10/3 10/11/3 5/12/3
f 17/13/4 4/14/4 1/15/4 13/16/4
f 11/17/5 24/18/5 21/19/5 7/20/5
f 1/15/6 2/21/6 3/22/6
f 4/14/7 5/23/7 6/24/7
f 7/20/8 8/25/8 9/26/8
f 10/11/9 11/27/9 12/28/9
f 13/16/10 14/29/10 15/30/10
f 16/9/11 17/31/11 18/32/11
f 19/8/12 20/33/12 21/34/12
f 22/10/13 23/35/13 24/36/13
f 1/15/14 4/14/14 6/24/14 2/21/14
f 5/12/15 10/11/15 12/28/15 6/37/15
f 11/17/16 7/20/16 9/26/16 12/38/16
f 8/2/17 3/1/17 2/39/17 9/40/17
f 10/11/18 22/10/18 24/36/18 11/27/18
f 23/5/19 19/8/19 21/19/19 24/18/19
f 20/3/20 8/2/20 7/41/20 21/42/20
f 22/10/21 16/9/21 18/32/21 23/35/21
f 17/13/22 13/16/22 15/30/22 18/43/22
f 14/4/23 20/3/23 19/44/23 15/45/23
f 16/9/24 5/12/24 4/46/24 17/31/24
f 3/1/25 14/4/25 13/47/25 1/48/25
f 6/49/26 12/50/26 9/51/26 2/52/26
